<?xml version="1.0" encoding="utf-8"?>
<!-- Generator: Adobe Illustrator 19.0.0, SVG Export Plug-In . SVG Version: 6.00 Build 0)  -->
<svg version="1.1" id="图层_1" xmlns="http://www.w3.org/2000/svg" xmlns:xlink="http://www.w3.org/1999/xlink" x="0px" y="0px"
	 viewBox="0 0 40 40" style="enable-background:new 0 0 40 40;" xml:space="preserve">
<style type="text/css">
	.st0{fill:#FFFFFF;}
</style>
<g id="XMLID_1_">
	<path id="XMLID_10_" class="st0" d="M20,24.2c1.4,0,2.5,0.7,3,1.7c6.9-0.4,8.4-3.4,8.6-4c-0.3-6.2-5.4-11.1-11.6-11.1
		c-6.4,0-11.6,5.2-11.6,11.6S13.6,34,20,34c5.5,0,10.2-3.9,11.3-9.1c-1.4,1.2-4,2.4-8.3,2.7c-0.4,1-1.6,1.8-3,1.8
		c-1.7,0-3.2-1.2-3.2-2.6S18.3,24.2,20,24.2z"/>
	<path id="XMLID_11_" class="st0" d="M36.1,18.4L36.1,18.4C34.2,11.3,27.7,5.9,20,5.9S5.8,11.3,4,18.4H3.9c-2.2,0-3.9,1.7-3.9,3.9
		v0.9c0,2.2,1.7,3.9,3.9,3.9h0.6c0,0,0.3,0,0.5,0h0.6v-5.4C6,14.2,12.3,8.1,20,8.1s14,6.1,14.3,13.7v5.4H35c0.2,0,0.5,0,0.5,0h0.6
		c2.2,0,3.9-1.7,3.9-3.9v-0.9C40,20.2,38.3,18.4,36.1,18.4z"/>
</g>
</svg>
