<?xml version="1.0" encoding="utf-8"?>
<!-- Generator: Adobe Illustrator 19.0.0, SVG Export Plug-In . SVG Version: 6.00 Build 0)  -->
<svg version="1.1" id="图层_1" xmlns="http://www.w3.org/2000/svg" xmlns:xlink="http://www.w3.org/1999/xlink" x="0px" y="0px"
	 viewBox="0 0 238 238" style="enable-background:new 0 0 238 238;" xml:space="preserve">
<style type="text/css">
	.st0{fill:#EE7D1A;}
</style>
<g id="XMLID_875_">
	<path id="XMLID_876_" class="st0" d="M119,233l-3.6-3.6c-0.2-0.2-21.7-21.5-42.9-48.3C43.6,144.6,29,115.7,29,95
		c0-49.7,40.4-90,90-90s90,40.4,90,90c0,20.6-14.7,49.6-43.6,86.2c-21.2,26.8-42.7,48.1-42.9,48.3L119,233z M119,15.2
		C75,15.2,39.2,51,39.2,95c0,18,14.3,45.6,41.4,79.8c15.7,19.8,31.5,36.6,38.4,43.7c6.9-7.1,22.8-23.9,38.5-43.8
		c27-34.2,41.3-61.7,41.3-79.7C198.8,51,163,15.2,119,15.2z"/>
	<path id="XMLID_879_" class="st0" d="M119,141.2c-21.9,0-39.8-17.8-39.8-39.8c0-21.9,17.8-39.8,39.8-39.8s39.8,17.8,39.8,39.8
		C158.8,123.4,140.9,141.2,119,141.2z M119,72c-16.3,0-29.5,13.2-29.5,29.5c0,16.3,13.2,29.5,29.5,29.5s29.5-13.2,29.5-29.5
		C148.5,85.2,135.3,72,119,72z"/>
</g>
</svg>
