<?xml version="1.0" encoding="utf-8"?>
<!-- Generator: Adobe Illustrator 21.0.0, SVG Export Plug-In . SVG Version: 6.00 Build 0)  -->
<svg version="1.1" id="图层_1" xmlns="http://www.w3.org/2000/svg" xmlns:xlink="http://www.w3.org/1999/xlink" x="0px" y="0px"
	 viewBox="0 0 317.7 96.1" style="enable-background:new 0 0 317.7 96.1;" xml:space="preserve">
<style type="text/css">
	.st0{fill:#AE7F46;}
</style>
<g>
	<g id="XMLID_51_">
		<g>
			<polygon id="XMLID_57_" class="st0" points="46.1,83 13.1,83 13.1,63.1 17.3,63.1 17.3,78.9 42,78.9 42,48.9 13.1,48.9 
				13.1,10.7 46.1,10.7 46.1,28.9 42,28.9 42,14.8 17.3,14.8 17.3,44.8 46.1,44.8 			"/>
			<polygon id="XMLID_56_" class="st0" points="84,83 53.6,83 53.6,11.4 57.7,11.4 57.7,78.9 79.8,78.9 79.8,62.8 84,62.8 			"/>
			<path id="XMLID_53_" class="st0" d="M98.6,96.1H0V0.2h98.6V96.1z M4.2,92h90.3V4.4H4.2V92z"/>
		</g>
	</g>
	<g>
		<path class="st0" d="M169.6,43.3h-25.1v-8.2h22.8V20.3h-50.2v3.6h23.8v7.8h-21.6l-3.2,15.2h19.7c-4.2,5.2-12.3,9.9-23.9,13.9
			l-0.7,0.3l2.1,3.3l0.5-0.2c13-4.8,21.8-10.6,26.3-17.3h0.9v19h3.6v-19h21.4c0,4.8-0.3,7.9-0.7,9.3c-0.6,1.7-1.9,2.5-4.1,2.5
			c-2.7,0-5.6-0.1-8.8-0.2l-0.8,0l0.9,3.6l9.1,0.1c3.4,0,5.7-1.3,6.8-3.8c0.9-2,1.4-6.7,1.4-14.3V43.3z M140.9,35.1v8.2h-20.4
			l1.8-8.2H140.9z M163.6,23.8v7.8h-19.1v-7.8H163.6z"/>
		<path class="st0" d="M114.1,17.7c2.3-2.2,4.5-4.8,6.6-7.8h4.4c2.2,2.6,4.2,5.3,5.8,8.1l0.3,0.4l3.4-1.2l-0.4-0.6
			c-1.2-2.1-2.8-4.3-4.7-6.7H143V6.5h-20.3c0.9-1.7,1.7-3.4,2.4-5l0.3-0.7L121.9,0l-0.2,0.5c-2.2,5.5-5.8,10.6-10.5,15l-0.6,0.6
			l3.2,2L114.1,17.7z"/>
		<path class="st0" d="M140.5,16.1l3.2,2l0.4-0.4c2.3-2.5,4.2-5.2,5.8-7.9h5.2c2.2,2.7,4.1,5.5,5.6,8.4l0.3,0.5l3.4-1.2l-0.3-0.6
			c-1.1-2.1-2.7-4.5-4.7-7h14.2V6.4h-21.9c0.7-1.5,1.4-3.2,2.1-5l0.3-0.7L150.5,0l-0.2,0.5c-2.1,5.7-5.2,10.7-9.3,15L140.5,16.1z"/>
		<path class="st0" d="M202,32.1c-4.6,12.6-11.2,22.6-19.7,29.8l-0.6,0.5l2.9,2.5l0.4-0.3c8.3-7,15.2-17.4,20.4-31.1l0.2-0.6
			l-3.5-1.4L202,32.1z"/>
		<path class="st0" d="M217.9,17.2l0.4,0.5L221,15l-0.4-0.4c-3.9-4.4-8.9-8.7-14.8-12.9l-0.4-0.3l-2.6,2.3l0.6,0.5
			C209.5,8.8,214.4,13.2,217.9,17.2z"/>
		<rect x="181.8" y="20.6" class="st0" width="62.7" height="3.6"/>
		<path class="st0" d="M243.6,62.7c-4.6-8.9-11.3-19.5-19.8-31.2l-0.3-0.5l-3.1,1.9l0.4,0.5c8.3,11.3,15,21.8,19.7,31.2l0.3,0.6
			l3.1-2.1L243.6,62.7z"/>
		<path class="st0" d="M304.9,46l-3,1.9l0.5,0.5c4.4,4.6,8,9,10.7,12.9l0.4,0.5l2.9-2.1l-0.3-0.5c-2.4-3.7-6-8-10.8-13L304.9,46z"/>
		<path class="st0" d="M301.9,52.6l-3.4-1.1l-0.1,0.8c-0.6,5.4-1.6,7.2-2.4,7.8c-0.9,0.6-2.5,0.9-4.8,0.9h-12.3
			c-2.8,0-4.1-1.3-4.1-4V44h-3.7v13.5c0,4.7,2.5,7.1,7.1,7.1h13.4c3.3,0,5.5-0.5,6.9-1.6c1.8-1.4,3-4.6,3.4-10L301.9,52.6z"/>
		<path class="st0" d="M288.9,55.7l0.4,0.5l2.9-2l-0.3-0.5c-1.8-2.7-4.6-6-8.2-9.7l-0.3-0.4l-3,1.8l0.6,0.6
			C284.2,49.5,286.9,52.8,288.9,55.7z"/>
		<path class="st0" d="M287.5,26.1h-19.3v14.3h19.3V26.1z M271.8,37.1v-7.6h12.1v7.6H271.8z"/>
		<rect x="265.5" y="18.1" class="st0" width="24.1" height="3.4"/>
		<path class="st0" d="M255.6,43.9c4.3-5.9,6.6-13.6,6.8-23.1v-9h29.2c0.3,5.9,1.1,11,2.2,15.2c0.9,3,2,5.7,3.2,8.1
			c-2.3,2.7-4.9,4.9-7.9,6.5l-0.6,0.3l2,3l0.5-0.3c2.7-1.5,5.3-3.7,7.9-6.4c0.4,0.7,0.9,1.3,1.4,1.9c2.8,2.9,5.7,4.4,8.6,4.4
			c2.7,0,4.9-3.6,7-11.3l0.1-0.5l-3.2-1.8l-0.2,0.8c-2,8.6-3.5,9.3-3.9,9.3c-1.7,0-3.6-1.2-5.7-3.4c-0.5-0.7-1.1-1.5-1.6-2.3
			c3.5-4.7,6.4-10.6,8.7-17.7l0.2-0.5l-3.2-1.6l-0.2,0.7c-1.9,6-4.4,11.2-7.3,15.6c-0.9-2-1.6-4.1-2.2-6.3c-1-3.4-1.7-8-2.1-13.8
			h18.2V8.2h-5.4c-1.3-2.6-2.5-4.8-3.7-6.6l-0.2-0.3l-3.8,0.7l0.7,0.8c1.3,1.6,2.5,3.4,3.4,5.5h-9.4c-0.1-1.6-0.1-3.9-0.1-6.9V0.7
			h-3.6v0.6c0,3.1,0,5.3,0.1,6.9h-32.6v12.5c-0.2,8.8-2.2,15.8-6,20.7l-0.3,0.5l2.8,2.5L255.6,43.9z"/>
		<path class="st0" d="M261,44.7c-1.8,6.1-4.5,11.6-8.1,16.3l-0.4,0.5l3.2,2L256,63c3.6-5,6.5-10.9,8.4-17.6l0.2-0.6l-3.5-0.8
			L261,44.7z"/>
		<path class="st0" d="M123.5,86.5c-0.8-0.5-2.3-1-4.5-1.6c-2.1-0.6-2.8-0.9-3.2-1.1c-1.1-0.6-1.3-1.2-1.3-1.7c0-0.8,0.3-1.4,1-1.9
			c0.7-0.4,1.7-0.7,3-0.7c1.3,0,2.3,0.3,3,0.9c0.7,0.6,1.1,1.5,1.3,2.7l0.1,0.8h2.6l-0.1-0.9c-0.2-1.9-0.9-3.4-2.1-4.5
			c-1.2-1.1-2.8-1.6-4.8-1.6c-1.9,0-3.4,0.4-4.5,1.2c-1.5,0.9-2.2,2.2-2.2,4c0,1.6,0.8,2.9,2.4,3.8c0.6,0.3,1.9,0.8,4,1.4
			c1.8,0.5,3.1,0.9,3.6,1.3c0.9,0.5,1.3,1.2,1.3,2.1c0,0.8-0.4,1.4-1.1,1.9c-0.8,0.6-2,0.8-3.3,0.8c-1.4,0-2.4-0.3-3.2-1
			c-0.9-0.7-1.3-1.8-1.4-3.2l-0.1-0.8h-2.6l0.1,0.9c0.2,2.2,0.9,3.9,2.3,5.1c1.2,1,2.9,1.6,5,1.6c2,0,3.6-0.4,4.9-1.3
			c1.4-1,2.2-2.4,2.2-4.1C125.9,88.9,125.1,87.5,123.5,86.5z"/>
		<polygon class="st0" points="133.4,87.5 143.5,87.5 143.5,84.9 133.4,84.9 133.4,80 144,80 144,77.4 130.7,77.4 130.7,95.8 
			144.4,95.8 144.4,93.2 133.4,93.2 		"/>
		<polygon class="st0" points="161.5,91 152,77.4 149.5,77.4 149.5,95.8 152.2,95.8 152.2,82.1 161.6,95.6 161.7,95.8 164.2,95.8 
			164.2,77.4 161.5,77.4 		"/>
		<path class="st0" d="M181,86.5c-0.8-0.5-2.3-1-4.5-1.6c-2-0.6-2.8-0.9-3.2-1.1c-1.1-0.6-1.3-1.2-1.3-1.7c0-0.8,0.3-1.4,1-1.9
			c0.7-0.4,1.7-0.7,3-0.7c1.3,0,2.3,0.3,3,0.9c0.7,0.6,1.1,1.5,1.3,2.7l0.1,0.8h2.6l-0.1-0.9c-0.2-1.9-0.9-3.4-2.1-4.5
			c-1.2-1.1-2.8-1.6-4.8-1.6c-1.9,0-3.4,0.4-4.5,1.2c-1.5,0.9-2.2,2.2-2.2,4c0,1.6,0.8,2.9,2.4,3.8c0.6,0.3,1.9,0.8,4,1.4
			c1.8,0.5,3.1,0.9,3.6,1.3c0.9,0.5,1.3,1.2,1.3,2.1c0,0.8-0.4,1.4-1.1,1.9c-0.8,0.6-2,0.8-3.3,0.8c-1.4,0-2.4-0.3-3.2-1
			c-0.9-0.7-1.3-1.8-1.4-3.2l-0.1-0.8H169l0.1,0.9c0.2,2.2,0.9,3.9,2.3,5.1c1.2,1,2.9,1.6,5,1.6c2,0,3.6-0.4,4.9-1.3
			c1.4-1,2.2-2.4,2.2-4.1C183.4,88.9,182.6,87.5,181,86.5z"/>
		<polygon class="st0" points="190.9,87.5 201,87.5 201,84.9 190.9,84.9 190.9,80 201.6,80 201.6,77.4 188.3,77.4 188.3,95.8 
			201.9,95.8 201.9,93.2 190.9,93.2 		"/>
		<polygon class="st0" points="209.7,77.4 207,77.4 207,95.8 220.1,95.8 220.1,93.2 209.7,93.2 		"/>
		<path class="st0" d="M236.4,88.4c0,1.7-0.3,3-1,3.8c-0.7,0.9-1.9,1.3-3.5,1.3c-1.6,0-2.7-0.4-3.5-1.3c-0.7-0.8-1-2.1-1-3.8v-11
			h-2.7v11c0,2.4,0.6,4.2,1.7,5.6c1.2,1.4,3.1,2.1,5.5,2.1c2.4,0,4.3-0.7,5.5-2.2c1.1-1.3,1.7-3.2,1.7-5.5v-11h-2.7V88.4z"/>
		<polygon class="st0" points="259.2,77.4 255.8,77.4 251,84 246.2,77.4 242.9,77.4 249.4,86.2 242.4,95.8 245.7,95.8 251,88.4 
			256.4,95.8 259.7,95.8 252.7,86.2 		"/>
		<path class="st0" d="M274.7,88.4c0,1.7-0.3,3-1,3.8c-0.7,0.9-1.9,1.3-3.5,1.3c-1.6,0-2.7-0.4-3.5-1.3c-0.7-0.8-1-2.1-1-3.8v-11
			H263v11c0,2.4,0.6,4.2,1.7,5.6c1.2,1.4,3.1,2.1,5.5,2.1c2.4,0,4.3-0.7,5.5-2.2c1.1-1.3,1.7-3.2,1.7-5.5v-11h-2.7V88.4z"/>
		<path class="st0" d="M296.8,92.4l-0.2-2.4c-0.1-1.3-0.7-2.4-1.6-3.1c0.4-0.3,0.7-0.6,1-0.9c0.7-0.9,1-2,1-3.2c0-1.7-0.6-3-1.7-4
			c-1.1-0.9-2.5-1.4-4.4-1.4h-7.8v18.4h2.7v-7.6h5.1c1,0,1.7,0.2,2.2,0.5c0.5,0.3,0.8,0.8,0.9,1.6l0.2,2.4c0.1,1.1,0.3,2,0.7,2.6
			l0.3,0.4h3.1l-0.9-1.4C297.1,94,296.9,93.3,296.8,92.4z M294.3,82.7c0,0.8-0.3,1.5-0.8,2c-0.6,0.5-1.5,0.8-2.7,0.8h-5.1V80h5.1
			c1.3,0,2.2,0.3,2.7,0.7C294.1,81.1,294.3,81.8,294.3,82.7z"/>
		<polygon class="st0" points="314.5,77.4 308.9,85.6 303.3,77.4 300,77.4 307.5,88.2 307.5,95.8 310.2,95.8 310.2,88.2 317.7,77.4 
					"/>
	</g>
</g>
</svg>
