<?xml version="1.0" encoding="utf-8"?>
<!-- Generator: Adobe Illustrator 19.0.0, SVG Export Plug-In . SVG Version: 6.00 Build 0)  -->
<svg version="1.1" id="图层_1" xmlns="http://www.w3.org/2000/svg" xmlns:xlink="http://www.w3.org/1999/xlink" x="0px" y="0px"
	 viewBox="0 0 40 40" style="enable-background:new 0 0 40 40;" xml:space="preserve">
<style type="text/css">
	.st0{fill:#FFFFFF;}
</style>
<g id="XMLID_2_">
	<path id="XMLID_17_" class="st0" d="M10.4,14.6h4.2v-4.2V4.2V0h-4.2H4.2C1.9,0,0,1.9,0,4.2v6.3v4.2h4.2L10.4,14.6L10.4,14.6z
		 M4.2,5.8c0-0.9,0.7-1.7,1.7-1.7h4.6v6.3H4.2V5.8z"/>
	<path id="XMLID_14_" class="st0" d="M35.8,0h-6.3l0,0h-4.2l0,0v4.2v6.2v4.2h4.2h6.3l0,0H40l0,0v-4.2V4.2C40,1.9,38.1,0,35.8,0z
		 M29.6,10.4V4.2h4.6c0.9,0,1.7,0.7,1.7,1.7v4.6h-6.3V10.4z"/>
	<path id="XMLID_11_" class="st0" d="M14.6,29.6v-4.2h-4.2H4.2l0,0H0l0,0l0,0v4.2l0,0v6.3C0,38.1,1.9,40,4.2,40h6.2h4.2l0,0v-4.2
		l0,0C14.6,35.8,14.6,29.6,14.6,29.6z M5.8,35.8c-0.9,0-1.7-0.7-1.7-1.7v-4.6h6.2v6.3H5.8z"/>
	<rect id="XMLID_10_" y="17.9" class="st0" width="4.2" height="4.2"/>
	<rect id="XMLID_9_" x="35.8" y="35.8" class="st0" width="4.2" height="4.2"/>
	<polygon id="XMLID_8_" class="st0" points="21.3,33.3 17.1,33.3 17.1,35.8 17.1,40 17.1,40 31.7,40 31.7,35.8 21.3,35.8 	"/>
	<rect id="XMLID_7_" x="17.9" class="st0" width="4.2" height="8.3"/>
	<rect id="XMLID_6_" x="17.1" y="27.1" class="st0" width="4.2" height="4.2"/>
	<rect id="XMLID_5_" x="23.3" y="27.1" class="st0" width="16.7" height="4.2"/>
	<rect id="XMLID_4_" x="25.4" y="18.8" class="st0" width="14.6" height="4.2"/>
	<polygon id="XMLID_3_" class="st0" points="9.9,17.9 9.9,22.1 17.9,22.1 17.9,25 22.1,25 22.1,10.8 17.9,10.8 17.9,17.9 	"/>
</g>
</svg>
