<?xml version="1.0" encoding="utf-8"?>
<!-- Generator: Adobe Illustrator 19.0.0, SVG Export Plug-In . SVG Version: 6.00 Build 0)  -->
<svg version="1.1" id="图层_1" xmlns="http://www.w3.org/2000/svg" xmlns:xlink="http://www.w3.org/1999/xlink" x="0px" y="0px"
	 viewBox="0 0 25 28.9" style="enable-background:new 0 0 25 28.9;" xml:space="preserve">
<style type="text/css">
	.st0{fill:#FFFFFF;}
</style>
<g id="XMLID_2_">
	<g id="XMLID_10_">
		<rect id="XMLID_14_" x="4.6" y="6.8" class="st0" width="13.1" height="0.9"/>
		<rect id="XMLID_13_" x="4.6" y="11.3" class="st0" width="13.1" height="0.9"/>
		<rect id="XMLID_12_" x="4.6" y="20.3" class="st0" width="7.1" height="0.9"/>
		<rect id="XMLID_11_" x="4.6" y="15.8" class="st0" width="13.1" height="0.9"/>
	</g>
	<path id="XMLID_9_" class="st0" d="M13.5,1.5h-0.4c0-0.8-0.4-1.5-1-1.5h-1.6c-0.6,0-1,0.7-1,1.5H9c-1.6,0-2.8,0.7-2.8,1.5
		c2.3,0,6.2,0,10.1,0C16.3,2.1,15.1,1.5,13.5,1.5z"/>
	<path id="XMLID_8_" class="st0" d="M20.6,13.1L20.6,13.1L20.6,13.1l1.1-1.2V1.2h-5.7c0.7,0.4,1.1,1,1.1,1.7v0H20v10.8l0.4-0.4
		L20.6,13.1z"/>
	<path id="XMLID_7_" class="st0" d="M21,22.8c-0.4,0-0.8-0.2-1.1-0.5v4.8H1.8V3h3.5v0c0-0.7,0.4-1.3,1.1-1.7H0v27.7h21.8v-6.2
		c-0.1,0.1-0.3,0.1-0.5,0.1C21.2,22.8,21.1,22.8,21,22.8z"/>
	<g id="XMLID_3_">
		<path id="XMLID_6_" class="st0" d="M20.8,14.3l-6,7.8c-0.3,0.4-0.2,1,0.2,1.3l1,0.8c0.4,0.3,1,0.2,1.3-0.2l6-7.8L20.8,14.3z"/>
		<path id="XMLID_5_" class="st0" d="M24.9,12.9l-1.4-1c-0.1-0.1-0.4,0-0.5,0.2l-2,2.1l2.4,1.9l0.2-0.4c0.1,0.3,0.1,0.8-0.3,1.3
			c-0.9,1.2-2.6,3.3-2.6,3.3c-0.3,0.3-0.6,0.9-0.2,1.4c0.2,0.2,0.3,0.3,0.6,0.3c0,0,0.1,0,0.1,0c0.3,0,0.6-0.3,0.6-0.3
			c0.1-0.1,0.1-0.2,0-0.3c-0.1-0.1-0.2-0.1-0.3,0c-0.1,0-0.2,0.2-0.4,0.2c-0.1,0-0.2,0-0.2-0.1C20.6,21,21,20.5,21,20.5
			c0,0,1.8-2.1,2.7-3.4c0.5-0.8,0.4-1.5,0.2-2l1-1.7C25,13.2,25,13,24.9,12.9z"/>
		<polygon id="XMLID_4_" class="st0" points="14.1,25.5 16,24.7 14.4,23.4 		"/>
	</g>
</g>
</svg>
