<?xml version="1.0" encoding="utf-8"?>
<!-- Generator: Adobe Illustrator 19.0.0, SVG Export Plug-In . SVG Version: 6.00 Build 0)  -->
<svg version="1.1" id="图层_1" xmlns="http://www.w3.org/2000/svg" xmlns:xlink="http://www.w3.org/1999/xlink" x="0px" y="0px"
	 viewBox="0 0 40 40" style="enable-background:new 0 0 40 40;" xml:space="preserve">
<style type="text/css">
	.st0{fill-rule:evenodd;clip-rule:evenodd;fill:#CFA972;}
</style>
<g id="Phone_on_v2_副本_2_2_">
	<g id="XMLID_19_">
		<path id="XMLID_20_" class="st0" d="M39.5,30.9c-0.8,0-10.2-4.4-11.1-4.4c-0.8,0-3.7,2.8-4.6,3.7c-0.8,0.8-8.1-5.6-8.3-5.8
			C15.5,24.3,9,17,9.8,16.1c0.8-0.8,3.7-3.7,3.7-4.6c0-0.8-4.4-10.2-4.4-11.1c0-0.8-4.9-0.6-6.5,1C1.3,2.9-3.7,10,5.2,22.3
			C6,23.6,7.7,25.8,11,29c0,0,0,0,0,0c0,0,0,0,0,0c0,0,0,0,0,0c0,0,0,0,0,0c3.2,3.2,5.4,5,6.7,5.8c12.3,8.9,19.4,3.9,20.7,2.5
			C40.1,35.8,40.3,30.9,39.5,30.9z"/>
	</g>
</g>
</svg>
