<?xml version="1.0" encoding="utf-8"?>
<!-- Generator: Adobe Illustrator 19.0.0, SVG Export Plug-In . SVG Version: 6.00 Build 0)  -->
<svg version="1.1" id="图层_1" xmlns="http://www.w3.org/2000/svg" xmlns:xlink="http://www.w3.org/1999/xlink" x="0px" y="0px"
	 viewBox="0 0 153 47" style="enable-background:new 0 0 153 47;" xml:space="preserve">
<style type="text/css">
	.st0{fill:#AF9453;}
</style>
<g id="XMLID_1_">
	<g id="XMLID_67_">
		<g id="XMLID_51_">
			<polygon id="XMLID_56_" class="st0" points="22.5,40.3 6.6,40.3 6.6,30.7 8.6,30.7 8.6,38.3 20.5,38.3 20.5,23.9 6.6,23.9 
				6.6,5.5 22.5,5.5 22.5,14.3 20.5,14.3 20.5,7.5 8.6,7.5 8.6,21.9 22.5,21.9 			"/>
			<polygon id="XMLID_55_" class="st0" points="40.7,40.3 26.1,40.3 26.1,5.8 28.1,5.8 28.1,38.3 38.7,38.3 38.7,30.5 40.7,30.5 			
				"/>
			<path id="XMLID_52_" class="st0" d="M47.7,46.6H0.3V0.4h47.4V46.6z M2.3,44.6h43.4V2.4H2.3V44.6z"/>
		</g>
	</g>
	<g id="XMLID_110_">
		<g id="XMLID_223_">
			<path id="XMLID_238_" class="st0" d="M58.2,4.8c-1,1.5-2.1,2.8-3.2,3.8L54,8c2.3-2.2,4-4.6,5.1-7.3l1.1,0.2
				c-0.4,0.9-0.8,1.9-1.4,2.8h10v1h-6.9c1.1,1.3,2,2.5,2.7,3.7l-1,0.4c-0.8-1.4-1.8-2.8-2.9-4H58.2z M68.4,11.5H56.9v-1.1h23.5v6.5
				H69.5v4.5h12.1c0,3.6-0.2,5.8-0.6,6.7c-0.5,1.1-1.5,1.6-3,1.6l-4.1,0l-0.3-1.1c1.5,0.1,2.9,0.1,4.2,0.1c1.2,0,1.9-0.5,2.3-1.4
				c0.2-0.7,0.4-2.4,0.4-4.9H69.5v9.2h-1.1v-9.2h-0.9c-2.1,3.2-6.3,6-12.6,8.3l-0.7-1.1c6.1-2.1,10.1-4.5,12-7.3h-9.7l1.4-6.7h10.4
				V11.5z M68.4,16.9h-9.5l-1,4.5h10.5V16.9z M72.2,4.8c-0.8,1.4-1.7,2.7-2.9,3.9l-1-0.6c2-2.1,3.5-4.6,4.5-7.3L74,0.9
				c-0.4,1-0.8,2-1.2,2.8h10.7v1h-7.1c1.1,1.4,2,2.7,2.6,3.8l-1.1,0.4c-0.8-1.4-1.7-2.8-2.8-4.2H72.2z M69.5,15.8h9.8v-4.3h-9.8
				V15.8z"/>
			<path id="XMLID_233_" class="st0" d="M88.1,10.5h29.6v1.1H88.1V10.5z M98.8,16.3c-2.5,6.5-5.8,11.5-9.7,14.8l-0.9-0.8
				c4.2-3.5,7.3-8.3,9.6-14.4L98.8,16.3z M99.1,1.4c2.8,2,5.2,4.1,7.1,6.2l-0.8,0.8c-1.7-1.9-4.1-4-7-6.3L99.1,1.4z M107.7,15.7
				c4.1,5.7,7.3,10.7,9.5,15l-1,0.7c-2.3-4.6-5.5-9.6-9.5-15L107.7,15.7z"/>
			<path id="XMLID_224_" class="st0" d="M150.7,4.6v1.1h-8.8c0.2,3,0.5,5.3,1,7c0.3,1.3,0.7,2.4,1.3,3.5c1.6-2.2,2.9-4.9,3.9-8
				l1,0.5c-1.1,3.5-2.5,6.3-4.3,8.6c0.3,0.5,0.6,0.9,0.9,1.3c1.1,1.2,2.1,1.8,3,1.8c0.7,0,1.4-1.6,2.2-4.7l1,0.5
				c-0.9,3.5-1.9,5.2-3.1,5.2c-1.3,0-2.6-0.7-3.9-2c-0.3-0.4-0.6-0.8-0.8-1.2c-1.3,1.4-2.6,2.5-4,3.3l-0.6-0.9c1.5-0.9,2.9-2,4-3.4
				c-0.6-1.2-1.2-2.6-1.6-4c-0.6-2-0.9-4.5-1.1-7.5h-14.6v4.6c-0.1,4.5-1.2,8.2-3.2,10.9l-0.9-0.8c1.8-2.4,2.8-5.8,2.9-10.1V4.6
				h15.7c0-0.8-0.1-2-0.1-3.6h1.1c0,1.7,0,2.9,0.1,3.6h5.3c-0.5-1.2-1.1-2.2-1.9-3.1l1.1-0.2c0.6,0.9,1.2,2,1.9,3.3H150.7z
				 M127.2,22.1c-0.9,3.2-2.3,6-4,8.3l-1-0.6c1.8-2.3,3.1-5,3.9-7.9L127.2,22.1z M128.3,9.3h11v1h-11V9.3z M129.6,13.2h8.7v6.3h-8.7
				V13.2z M137.2,18.5v-4.2h-6.4v4.2H137.2z M134.1,31.1c-2.1,0-3.1-1-3.1-3.1v-6.2h1.2v6c0,1.5,0.8,2.2,2.3,2.2h5.9
				c1.2,0,2-0.2,2.5-0.5c0.6-0.5,1.1-1.8,1.3-4l1.1,0.3c-0.2,2.4-0.7,4-1.5,4.6c-0.6,0.5-1.6,0.7-3.1,0.7H134.1z M136.5,21.7
				c1.7,1.8,3,3.3,3.9,4.6l-0.9,0.6c-1-1.5-2.3-3-3.9-4.7L136.5,21.7z M146.9,22.8c2.3,2.4,4,4.4,5.2,6.2l-0.9,0.7
				c-1.3-1.9-3-4-5.2-6.3L146.9,22.8z"/>
		</g>
	</g>
	<g id="XMLID_6_">
		<path id="XMLID_138_" class="st0" d="M57.5,46.3c-0.9,0-1.7-0.2-2.3-0.7c-0.6-0.5-1-1.3-1-2.3l0-0.2H55l0,0.2
			c0.1,0.7,0.3,1.3,0.8,1.7c0.4,0.3,1,0.5,1.7,0.5c0.7,0,1.3-0.1,1.7-0.4c0.4-0.3,0.6-0.6,0.6-1.1c0-0.5-0.2-0.9-0.8-1.2
			c-0.3-0.2-0.9-0.4-1.8-0.6c-1-0.3-1.6-0.5-1.9-0.6c-0.7-0.4-1-0.9-1-1.6c0-0.8,0.3-1.3,1-1.7c0.5-0.3,1.2-0.5,2-0.5
			c0.9,0,1.6,0.2,2.2,0.7c0.6,0.5,0.9,1.1,0.9,2l0,0.2h-0.8l0-0.2c-0.1-0.6-0.3-1.1-0.7-1.4c-0.4-0.3-0.9-0.5-1.6-0.5
			c-0.7,0-1.2,0.1-1.6,0.4c-0.4,0.2-0.6,0.6-0.6,1.1c0,0.4,0.2,0.7,0.7,1c0.2,0.1,0.8,0.3,1.6,0.5c1,0.3,1.7,0.5,2.1,0.8
			c0.7,0.4,1.1,1,1.1,1.8c0,0.7-0.3,1.3-1,1.8C59.1,46.1,58.4,46.3,57.5,46.3z"/>
		<path id="XMLID_40_" class="st0" d="M59.4,38.5c0.5,0.4,0.8,1.1,0.9,1.9h-0.4c-0.1-0.7-0.3-1.2-0.7-1.6c-0.4-0.4-1-0.5-1.7-0.5
			c-0.7,0-1.3,0.1-1.7,0.4c-0.5,0.3-0.7,0.7-0.7,1.2c0,0.5,0.3,0.9,0.8,1.2c0.2,0.1,0.8,0.3,1.6,0.5c1,0.3,1.7,0.5,2,0.7
			c0.7,0.4,1,0.9,1,1.7c0,0.7-0.3,1.2-0.9,1.6c-0.6,0.4-1.3,0.6-2.1,0.6c-0.9,0-1.6-0.2-2.1-0.7c-0.6-0.5-0.9-1.2-1-2.1h0.4
			c0.1,0.8,0.3,1.4,0.8,1.8c0.5,0.4,1.1,0.6,1.8,0.6s1.4-0.2,1.8-0.5c0.5-0.3,0.7-0.7,0.7-1.3c0-0.6-0.3-1.1-0.9-1.4
			c-0.3-0.2-0.9-0.4-1.9-0.7c-1-0.3-1.6-0.5-1.8-0.6c-0.6-0.3-0.9-0.8-0.9-1.5c0-0.7,0.3-1.2,0.9-1.6c0.5-0.3,1.1-0.5,1.9-0.5
			C58.2,37.8,58.9,38,59.4,38.5z"/>
		<polygon id="XMLID_137_" class="st0" points="63.4,46.2 63.4,37.8 69.4,37.8 69.4,38.6 64.2,38.6 64.2,41.4 69.1,41.4 69.1,42.2 
			64.2,42.2 64.2,45.4 69.6,45.4 69.6,46.2 		"/>
		<path id="XMLID_65_" class="st0" d="M63.6,38h5.6v0.4H64v3.2h4.9V42H64v3.6h5.3V46h-5.7V38z"/>
		<polygon id="XMLID_136_" class="st0" points="78.2,46.2 73.3,39.1 73.3,46.2 72.4,46.2 72.4,37.8 73.3,37.8 78.2,44.8 78.2,37.8 
			79.1,37.8 79.1,46.2 		"/>
		<path id="XMLID_86_" class="st0" d="M72.6,38h0.6l5.2,7.4h0V38h0.4v8h-0.5l-5.2-7.5h0V46h-0.4V38z"/>
		<path id="XMLID_135_" class="st0" d="M85.1,46.3c-0.9,0-1.7-0.2-2.3-0.7c-0.6-0.5-1-1.3-1-2.3l0-0.2h0.8l0,0.2
			c0.1,0.7,0.3,1.3,0.8,1.7c0.4,0.3,1,0.5,1.7,0.5c0.7,0,1.3-0.1,1.7-0.4c0.4-0.3,0.6-0.6,0.6-1.1c0-0.5-0.2-0.9-0.8-1.2
			c-0.3-0.2-0.9-0.4-1.8-0.6c-1-0.3-1.6-0.5-1.9-0.6c-0.7-0.4-1-0.9-1-1.6c0-0.8,0.3-1.3,1-1.7c0.5-0.3,1.2-0.5,2-0.5
			c0.9,0,1.6,0.2,2.2,0.7c0.6,0.5,0.9,1.1,0.9,2l0,0.2h-0.8l0-0.2c-0.1-0.6-0.3-1.1-0.7-1.4c-0.4-0.3-0.9-0.5-1.6-0.5
			c-0.7,0-1.2,0.1-1.6,0.4c-0.4,0.2-0.6,0.6-0.6,1.1c0,0.4,0.2,0.7,0.7,1c0.2,0.1,0.8,0.3,1.6,0.5c1,0.3,1.7,0.5,2.1,0.8
			c0.7,0.4,1.1,1,1.1,1.8c0,0.7-0.3,1.3-1,1.8C86.8,46.1,86,46.3,85.1,46.3z"/>
		<path id="XMLID_88_" class="st0" d="M87,38.5c0.5,0.4,0.8,1.1,0.9,1.9h-0.4c-0.1-0.7-0.3-1.2-0.7-1.6c-0.4-0.4-1-0.5-1.7-0.5
			c-0.7,0-1.3,0.1-1.7,0.4c-0.5,0.3-0.7,0.7-0.7,1.2c0,0.5,0.3,0.9,0.8,1.2c0.2,0.1,0.8,0.3,1.6,0.5c1,0.3,1.7,0.5,2,0.7
			c0.7,0.4,1,0.9,1,1.7c0,0.7-0.3,1.2-0.9,1.6c-0.6,0.4-1.3,0.6-2.1,0.6c-0.9,0-1.6-0.2-2.1-0.7c-0.6-0.5-0.9-1.2-1-2.1h0.4
			c0.1,0.8,0.3,1.4,0.8,1.8c0.5,0.4,1.1,0.6,1.8,0.6s1.4-0.2,1.8-0.5c0.5-0.3,0.7-0.7,0.7-1.3c0-0.6-0.3-1.1-0.9-1.4
			c-0.3-0.2-0.9-0.4-1.9-0.7c-1-0.3-1.6-0.5-1.8-0.6c-0.6-0.3-0.9-0.8-0.9-1.5c0-0.7,0.3-1.2,0.9-1.6c0.5-0.3,1.1-0.5,1.9-0.5
			C85.9,37.8,86.6,38,87,38.5z"/>
		<polygon id="XMLID_134_" class="st0" points="91.1,46.2 91.1,37.8 97,37.8 97,38.6 91.9,38.6 91.9,41.4 96.8,41.4 96.8,42.2 
			91.9,42.2 91.9,45.4 97.2,45.4 97.2,46.2 		"/>
		<path id="XMLID_92_" class="st0" d="M91.3,38h5.6v0.4h-5.1v3.2h4.9V42h-4.9v3.6H97V46h-5.7V38z"/>
		<polygon id="XMLID_133_" class="st0" points="100.1,46.2 100.1,37.8 100.9,37.8 100.9,45.4 105.9,45.4 105.9,46.2 		"/>
		<path id="XMLID_94_" class="st0" d="M100.3,38h0.4v7.6h5V46h-5.4V38z"/>
		<path id="XMLID_132_" class="st0" d="M111.8,46.3c-1.1,0-1.9-0.3-2.5-1c-0.5-0.6-0.8-1.4-0.8-2.5v-5.1h0.8v5.1
			c0,0.9,0.2,1.5,0.5,2c0.4,0.5,1,0.7,1.8,0.7c0.9,0,1.5-0.2,1.9-0.7c0.4-0.4,0.5-1.1,0.5-2v-5.1h0.8v5.1c0,1.1-0.3,1.9-0.8,2.5
			C113.8,46,112.9,46.3,111.8,46.3z"/>
		<path id="XMLID_96_" class="st0" d="M108.8,38h0.4v4.9c0,0.9,0.2,1.6,0.6,2.1c0.4,0.5,1.1,0.8,2,0.8c0.9,0,1.6-0.3,2-0.8
			c0.4-0.5,0.6-1.2,0.6-2.1V38h0.4v4.9c0,1-0.2,1.8-0.7,2.4c-0.5,0.6-1.3,0.9-2.3,0.9c-1,0-1.8-0.3-2.3-0.9
			c-0.5-0.6-0.7-1.4-0.7-2.4V38z"/>
		<polygon id="XMLID_131_" class="st0" points="123.7,46.2 121,42.5 118.4,46.2 117.3,46.2 120.5,41.8 117.6,37.8 118.6,37.8 
			121,41.1 123.5,37.8 124.5,37.8 121.6,41.8 124.8,46.2 		"/>
		<path id="XMLID_98_" class="st0" d="M118,38h0.5l2.5,3.5l2.5-3.5h0.6l-2.8,3.8l3.1,4.2h-0.6l-2.8-3.8l-2.8,3.8h-0.6l3.1-4.2
			L118,38z"/>
		<path id="XMLID_66_" class="st0" d="M130.2,46.3c-1.1,0-1.9-0.3-2.5-1c-0.5-0.6-0.8-1.4-0.8-2.5v-5.1h0.8v5.1c0,0.9,0.2,1.5,0.5,2
			c0.4,0.5,1,0.7,1.8,0.7c0.9,0,1.5-0.2,1.9-0.7c0.4-0.4,0.5-1.1,0.5-2v-5.1h0.8v5.1c0,1.1-0.3,1.9-0.8,2.5
			C132.2,46,131.3,46.3,130.2,46.3z"/>
		<path id="XMLID_100_" class="st0" d="M127.2,38h0.4v4.9c0,0.9,0.2,1.6,0.6,2.1c0.4,0.5,1.1,0.8,2,0.8c0.9,0,1.6-0.3,2-0.8
			c0.4-0.5,0.6-1.2,0.6-2.1V38h0.4v4.9c0,1-0.2,1.8-0.7,2.4c-0.5,0.6-1.3,0.9-2.3,0.9c-1,0-1.8-0.3-2.3-0.9
			c-0.5-0.6-0.7-1.4-0.7-2.4V38z"/>
		<path id="XMLID_101_" class="st0" d="M142.4,46.2l-0.1-0.1c-0.2-0.3-0.3-0.7-0.3-1.2l-0.1-1.2c0-0.5-0.2-0.8-0.5-1
			c-0.3-0.2-0.7-0.3-1.2-0.3h-2.7v3.7h-0.8v-8.4h3.5c0.8,0,1.5,0.2,2,0.6c0.5,0.4,0.7,1,0.7,1.7c0,0.5-0.1,1-0.4,1.4
			c-0.2,0.2-0.4,0.4-0.7,0.6c0.6,0.3,0.9,0.8,1,1.5l0.1,1.2c0,0.5,0.1,0.8,0.3,1.1l0.2,0.3H142.4z M140.2,41.7
			c0.6,0,1.1-0.2,1.4-0.5c0.3-0.3,0.5-0.6,0.5-1.1c0-0.5-0.1-0.9-0.4-1.2c-0.3-0.3-0.8-0.4-1.5-0.4h-2.7v3.1H140.2z"/>
		<path id="XMLID_103_" class="st0" d="M136.9,38h3.3c0.8,0,1.4,0.2,1.8,0.6c0.4,0.4,0.7,0.9,0.7,1.6c0,0.5-0.1,0.9-0.4,1.3
			c-0.3,0.4-0.7,0.6-1.2,0.7v0c0.9,0.2,1.3,0.7,1.4,1.5l0.1,1.2c0,0.5,0.2,0.9,0.3,1.2h-0.5c-0.1-0.3-0.2-0.6-0.3-1.1l-0.1-1.2
			c0-0.5-0.2-0.9-0.6-1.1c-0.3-0.2-0.7-0.3-1.3-0.3h-2.9V46h-0.4V38z M137.3,38.4v3.5h2.9c0.7,0,1.2-0.2,1.6-0.5
			c0.3-0.3,0.5-0.7,0.5-1.3c0-0.6-0.2-1-0.5-1.3c-0.4-0.3-0.9-0.5-1.6-0.5H137.3z"/>
		<polygon id="XMLID_39_" class="st0" points="148.4,46.2 148.4,42.7 145,37.8 146.1,37.8 148.9,41.9 151.7,37.8 152.7,37.8 
			149.3,42.7 149.3,46.2 		"/>
		<path id="XMLID_108_" class="st0" d="M145.4,38h0.5l2.9,4.3l2.9-4.3h0.5l-3.2,4.7V46h-0.4v-3.3L145.4,38z"/>
	</g>
</g>
</svg>
