<?xml version="1.0" encoding="utf-8"?>
<!-- Generator: Adobe Illustrator 19.0.0, SVG Export Plug-In . SVG Version: 6.00 Build 0)  -->
<svg version="1.1" id="图层_1" xmlns="http://www.w3.org/2000/svg" xmlns:xlink="http://www.w3.org/1999/xlink" x="0px" y="0px"
	 viewBox="-37 11 225 40" style="enable-background:new -37 11 225 40;" xml:space="preserve">
<style type="text/css">
	.st0{fill:none;stroke:url(#SVGID_1_);}
	.st1{enable-background:new    ;}
	.st2{fill:#AF9453;}
	.st3{fill:#FFFFFF;}
</style>
<linearGradient id="SVGID_1_" gradientUnits="userSpaceOnUse" x1="-32.7272" y1="44.0958" x2="187.7268" y2="44.0958">
	<stop  offset="0" style="stop-color:#FFFFFF"/>
	<stop  offset="0.8442" style="stop-color:#FFFFFF;stop-opacity:0.1593"/>
	<stop  offset="1" style="stop-color:#FFFFFF;stop-opacity:0"/>
</linearGradient>
<path class="st0" d="M-32.7,49.5c0,0,174-22.2,220.2-2.9"/>
<g>
	<g class="st1">
		<path class="st2" d="M-35.1,27.3c-0.6-2.3,2.5-4.7,3.6-5.6c1.6,2.8,0.4,5.3-0.2,8c-0.8,3.3-0.8,7.5-1.7,10.5
			c-0.3,0.9,0.7,3.1-1.1,1.3c-0.9-0.8-0.9-1.7-1-3c-0.4-4.4,1.6-9.7,2.9-13.4C-33.5,25.8-34.3,26.5-35.1,27.3z"/>
		<path class="st2" d="M-21.2,23.1c1.8,2.4-2.2,24-7.6,17c-2.4-3.1-1.1-8.7,0.2-11.8C-28.2,27.3-22.8,21-21.2,23.1
			C-21.1,23.3-21.5,22.7-21.2,23.1z M-23.6,26.3c0.1-0.4,0.2-0.8,0.3-1.1c-2.7,1.9-7.7,15.8-2.7,13c2-1.1,3.7-5.3,4.4-7.8
			C-20.9,27.9-21,21.8-23.6,26.3z"/>
	</g>
	<g class="st1">
		<path class="st3" d="M-1.9,25.2C-2.3,28-3.9,32-5.1,34.4c-0.7,1.4-0.3,2.6-1.6,1.6c-0.7-0.5-0.9-3.1-0.9-4c0.1-2,1-4.2,1.7-5.9
			c0.4-1,1.2-1.9,1-2.9c0-0.3-2.8-2.4-2.4-2.6c0.5-0.3,3.2,1.4,3.5,2.1c0.5,1.3-0.3,1.7-1,2.9c-0.3,0.5-4.2,9.2-1.5,9.2
			c2.2,0,2.7-9.8,4.4-10.7C-1.8,24.5-1.9,24.9-1.9,25.2C-2,25.6-1.8,24.4-1.9,25.2z M10,38.3c0.2,0.9-3.6-2.1-4.4-2.5
			c-0.9-0.6-2.9-2.2-4-1.9c-1.4,0.3-0.7,0.8-1.8,2.6c-1.7,2.7-6.2,3.4-3-0.8c1.4-1.9,3-1.6,3.6-4.1c0.3-1.1,0.1-2.4,0.3-3.5
			c-0.5,0.6-1.4,1.9-2.1,2.1c-0.4,0.1,2.9-8.2,3.1-9c0.2-1,0.7-3.7-0.7-4.1c-1.3-0.4-0.6,1-1.3,1.4c0,0-0.2-2.1,0.9-2.3
			c0.6-0.1,1.2,0.7,1.6,1.1c2.2,2.8-1.3,8.2-2.5,10.6c1.5-1.4,5.4-6.7,7.4-4.2c2.9,3.8-4.6,5.1-4.9,6c0.1-0.2,8-7.1,2.5-5.4
			C1,25.5,1.8,29.5,1,33C3.1,32.9,9.5,35.7,10,38.3C10,38.4,10,38,10,38.3z M-3.1,37.9c1.6-0.8,2.6-2.2,3.2-4.2
			c-0.9,0.3-4.4,2.4-3.9,4C-3.6,37.8-3.3,37.9-3.1,37.9C-2.6,37.8-3.5,38.1-3.1,37.9z"/>
		<path class="st3" d="M21.5,28.4c0.4,2.1,0.4,4.7-0.1,6.8c-0.3,1.2-0.4,2.3-1.3,2.8c-0.4,0.2-3.2-1.2-3.1-1.5
			c0.1-0.3,1.8,0.4,2.1,0.3c1.3-0.3,0.6,0.3,1.4-1.2c0.5-1,0.8-5,0.3-6.1c-0.2-0.4-1.7-1.7-1.6-1.1c0-0.2,1.3-0.3,1.4-0.3
			c-1.6-4.6-4.6,3.1-6,3.3c-1.7,0.2,2.3-3.8,1.9-3.4c1.4-1.3,2.7-2.9,4.4-3.9c-0.3-0.1-2.4-1.9-2.2-2.3c0.4-0.6,0.7,0.6,1.2-0.3
			c0.4-0.7,2.6-2.9,1.9-3.7c-1.2-1.4-4.2,4.7-4.9,4.7c-0.7,0,0.2-4.1,0.7-4.5c0.2-0.1-0.2,2.6-0.2,2.5c0.5-0.6,5-6.3,5.4-2.1
			c0.1,1.2-2.2,3.2-2.9,3.8c0.6,0.3,1,1.4,1.4,1.6c0.6,0.3,1.5-0.6,2.3,0C25.8,25.7,21.7,28.1,21.5,28.4
			C21.5,28.5,22.2,28.2,21.5,28.4z M19.5,26.1c1.9,0.5,1.1,2.5,3.1,1.1c0.4-0.3,1.1-1,1-1.6C23.2,23.2,19.5,26.1,19.5,26.1
			C19.6,26.1,20,25.7,19.5,26.1z M31,32.3c-0.8,1.8-2.2,1.1-3-0.3c0.1,1.9-4.7,5.9-4.9,4.5c0.1,0.7,3.3-2.7,3.4-3
			c0.2-0.3,1.1-4.6,0.4-4.3c0.1,0,0.6,1.1,0.7,1.3c0.2-1,1.3-5.2-1.2-3.7c-1.2,0.7,0,4.4-0.7,5.4c-0.3,0.5-0.5-5.3-0.4-5.7
			c0.5-3.2,1.7-6.2,3.4-8.6c-0.6,0.3-5,4-5.1,1.7c0,0.7,6.5-4.4,6.9-2.1c0.1,0.4-1.7,1.8-2,2.1c-1.4,1.9-2.3,4.8-2.8,7.2
			c1-2.2,3-6.8,5-3.3C31.7,25.2,31.8,30.5,31,32.3C30.8,32.6,31.2,31.8,31,32.3z M28.8,28.3c-0.2,1.2-1.1,5.3,1.1,4
			c1.1-0.6,0.7-3.7,0.6-4.8c-0.3-4.4-1.8-6.3-4-1.3C28.4,26,29,26.3,28.8,28.3C28.7,28.9,28.8,28.1,28.8,28.3z M33.1,36.9
			c0.3,1.2-4.2-2.7-4.1-3.2C29.1,33.1,32.9,36.1,33.1,36.9C33.2,37.2,33.1,36.7,33.1,36.9z"/>
		<path class="st3" d="M44.9,24.4c0.4-0.9-0.9,4.2-1,5c-0.1,0.6-0.3,5.5-0.5,5.6c-1.3,0.6-1.9-3.6-2-4.4c-0.1-1.7,1.3-5.4,0.8-6.7
			c-0.5-1.3-0.9,0.1-1.6,0.7c-1.2,0.9-1.2,2.1-2.9,1.7c-0.3-0.1-1.5-1.3-1-1.5c0.2-0.1,0.7,1.1,1.1,0.9c1-0.5,1.1-0.3,2.1-1.2
			c0.8-0.8,1.7-3.4,3.1-1.5c0.5,0.7-2,9.9-0.2,9.9C42.6,32.8,44.6,25,44.9,24.4C45,24.1,44.3,25.7,44.9,24.4z M40.4,20.5
			c-1.1,0.6,2.3-1.6,2.5-1.8c0.5-0.4,1.4-0.3,1.3-1.1c0-0.4-2.5-1.7-2.4-1.8c0.9-1,3.6,1.7,3.3,2.5C44.9,19.2,41.1,20.1,40.4,20.5
			C40.2,20.6,40.7,20.3,40.4,20.5z M56.6,20.1c0.1,0.2,0.1,0.4,0.2,0.6c-0.2,0.3-4.8,0.1-5.4,0.2c2.5,0.8,1.6,7.6,1.5,9.7
			c-0.1,1.2-0.2,4-1.5,4.2c-0.6,0.1-4.9-3.2-4.9-3.2c0.4-0.5,3.8,2.2,4.9,1.6c1.2-0.7,0.6-6.1,0.6-7.3c-0.1-1.4,0.4-4.1-1.2-4.8
			c-0.3-0.1-6.5,2.8-6,1.2c0.1-0.3,5.4-1.8,5.9-1.9C52,20,55.7,18.9,56.6,20.1C56.8,20.5,56.5,19.9,56.6,20.1z"/>
	</g>
	<g class="st1">
		<path class="st2" d="M73.3,25.5c-1.9,1.6-4.2,4.3-6.3,1.8c-2.1-2.4,0-5.1,1.9-6.7c1.4-1.1,4.6-3.4,6.4-1.5
			c2.1,2.2-1.7,2.2-1.7,3.4c0.3-0.5,0.7-0.9,1-1.4c0-0.6-4.8,2.3-5.3,2.8c-1.6,1.9-1.4,3.7,1.4,2.2c1.4-0.7,2.5-2.6,3.9-3.1
			c1.7-0.6,1.1-0.2,1.1,0.8c0.1,1.3-2.4,4-3,5c-0.8,1.3-1.7,3.3-2.9,4.3c-2.1,1.6-2.3,0.5-1-1.4C70.2,29.7,73.3,25.5,73.3,25.5
			C73.3,25.5,72.1,27.4,73.3,25.5z"/>
	</g>
	<g class="st1">
		<path class="st3" d="M84.4,23.2c-0.5,2.1-2.4,5-3.7,6.8c-0.8,1-0.5,1.9-1.7,1.2c-0.6-0.4-0.7-2.4-0.6-3.1c0.2-1.5,1.3-3.2,2.1-4.4
			c0.5-0.7,1.3-1.4,1.2-2.1c0-0.2-2.7-2-2.2-2.1c0.5-0.2,3.1,1.2,3.3,1.8c0.4,1-0.4,1.2-1.2,2.1c-0.3,0.4-4.8,6.8-2.1,6.9
			c2.3,0.1,3.3-7.3,5.1-7.9C84.6,22.7,84.5,23,84.4,23.2C84.3,23.5,84.5,22.7,84.4,23.2z M95.5,33.7c0.1,0.7-3.5-1.7-4.2-2.1
			c-0.9-0.5-2.8-1.8-3.8-1.7c-1.4,0.2-0.7,0.5-2,1.8c-1.9,2-6.4,2.3-3-0.8c1.6-1.4,3.1-1.1,3.9-2.9c0.4-0.8,0.3-1.8,0.5-2.6
			c-0.6,0.4-1.5,1.4-2.2,1.5c-0.4,0.1,3.4-6,3.6-6.6c0.3-0.8,0.9-2.7-0.5-3.1c-1.3-0.4-0.6,0.7-1.4,0.9c0,0-0.1-1.6,1-1.6
			c0.6,0,1.2,0.6,1.5,1c2,2.3-1.9,6.1-3.2,7.9c1.5-1,5.8-4.7,7.6-2.7c2.7,3-4.9,3.6-5.3,4.3c0.1-0.1,8.4-4.9,2.8-3.9
			c-3.7,0.6-3.2,3.7-4.2,6.3C88.9,29.3,95.2,31.8,95.5,33.7C95.5,33.8,95.4,33.5,95.5,33.7z M82.3,32.8c1.7-0.5,2.7-1.5,3.5-3
			c-0.9,0.2-4.5,1.6-4.2,2.8C81.9,32.7,82.2,32.8,82.3,32.8C82.9,32.8,82,32.9,82.3,32.8z"/>
		<path class="st3" d="M119.3,31.2c0.2,0,0.4,0.1,0.6,0.1c0.3,0.7-5-0.2-5.4-0.3c-1.6-0.7-3.1-1.9-4.7-2.8c0,0.9,0.8,5.2-0.1,6.1
			c-1.5,1.5-2.5-2.7-3.5-2.6c0.6-0.1,2.1,2,2.6,1.6c0.9-0.7,0.2-5.5-0.5-5.7c-0.9-0.2-1.7,1.8-2.4,2.5c-0.3,0.3-3.9,2.7-4.1,1.8
			c0,0,2.8-1.4,3.1-1.6c1.1-0.9,1.5-2.2,2.2-3.3c-1,0.4-2,1.1-3,1.3c-0.1,0-2.9,0.1-2.5-0.3c0,0,3.5-0.8,3.8-0.9
			c1.4-0.6,3.6-0.7,3.6-2.1c-0.2,0.1-2.3,1.2-2.3,1.1c0-0.1,2.2-1.7,2.3-1.9c0.5-0.9,0.2-2.7,0.3-3.6c-0.7,0.2-1.2,0.6-1.9,0.6
			c-0.4,0-2.5-1.1-2.3-1.2c0.3-0.1,2.1,0.5,2.6,0.4c1.6-0.2,1.5-0.3,1.9-1.5c0.6-1.9-0.9-1.5-1-1.6c-0.5-1.1,1.6-0.6,1.9-0.3
			c0.7,0.7-0.2,2-0.3,2.7c0,0,3.6-0.1,3,0.5c-0.5,0.6-2.5-0.2-3.1,0.6c-0.5,0.6-0.2,2.7-0.3,3.4c0.1-0.1,2.9-2.2,2.4-2.3
			c2.7,0.1-1.1,2.2-0.9,2.1c-1.1,0.7-1.5,0.3-1.5,1.6c0.2,0,3.2-0.5,3.2-0.5c-0.2-0.1-0.4-0.2-0.7-0.4c0-0.1,2.3,0.3,2.5,0.8
			c0.1,0.4-7.2-0.6-4.4,2.4C112.4,30,116.6,31,119.3,31.2C119.7,31.3,118.7,31.2,119.3,31.2z M104.8,25.1c-1.1-0.5-0.9-2.8,0.4-2.5
			c-0.8-0.2-0.8,1.5-0.3,1.8c0.7,0.5,3.6-0.9,3.4-1.2C108.8,24.4,105.9,25.6,104.8,25.1C104.6,25,105.4,25.4,104.8,25.1z M108.2,27
			c0.3,0.1,0.6,0.2,0.9,0.3c0-0.3,0-0.6,0-0.9C108.6,26.6,108.1,26.9,108.2,27C108.2,27.1,108.2,27,108.2,27z"/>
		<path class="st3" d="M137.1,23c1.8,1.1,0.6,7.8,0.1,9.4c-0.7,2.2-0.8,1.8-2.5,0.5c-1-0.7-0.2-0.8-1.5-1c-0.7-0.1-1.6,0.3-2.3,0.4
			c-2,0.2-2.3-0.3-2.7-2.1c-0.4-1.9-0.4-4.8,0.4-6.6c0.4-0.9,0.5-0.9,1.2-1.5c0.6-0.5,3-1.2,2.9-1.9c-0.1-0.4-1.9-1.3-1.9-1.3
			c0.3-0.3,3.4,0.9,3.4,1.5c0,0.6-2.8,1.2-3.4,1.5c-1.7,1-1.3,1.5-1.6,3.4c-0.2,1.6-0.6,3.4-0.2,5c0.4,2,1.3,1.3,3.4,1.1
			c0.1,0,3.7-0.3,3.1,0.3c-0.4,0-0.7,0.1-1.1,0.1c0.2,0.1,1.3,1.5,1.7,1.3c1.4-0.9,0.9-6.2,0.9-7.5c0-1.2,0.1-2.2-1.6-2.6
			c-1.4-0.3-3.3,1.4-4.5,1c-0.2-0.1,3.2-1.4,3.5-1.4C135.3,22.5,136.1,22.5,137.1,23C137.2,23.1,136.8,22.9,137.1,23z M134.1,26.6
			c-0.9,0.2-2,1.5-2.5,2c0.4,0,2.8-0.4,3.1-0.2c0.8,0.8-3,1.5-3.1,1.6c0.3-0.5,1.4-0.5,1.9-0.9c-0.2,0.2-4.1,0.1-3.9-0.2
			c-0.2,0.2,4.5-2.1,3.4-2.3c-0.8-0.2-2.9,0.9-3.6,0.1c-0.4-0.5,5.9-0.9,5.4-0.3C134.5,26.4,134.3,26.5,134.1,26.6
			C134,26.6,134.4,26.5,134.1,26.6z"/>
		<path class="st3" d="M165.5,35.1c0.4,1.5-2.1-0.4-2.4-0.6c-1.3-1.2-2.2-2.6-3-4.1c-0.2,0.1-4.8,1.6-4.6,0.7c0-0.1,3.5-0.6,3.9-1
			c0.8-0.8-0.7-2.9-1-4.1c-1.1,0.2-3.5,0.5-4.2,1.1c-0.5,0.5-0.4,2.1-0.4,2.7c0.7-0.3,4.7-2.2,5.3-1.8c0.3,0.2-4.7,2.1-4.8,2.2
			c-0.6,0.6-0.1,3.4-0.7,3.6c-0.4,0.1-4.8-3-4.9-2.9c0.3-0.2,3,0,3.8-0.6c0.9-0.7,0.8-1.8,0.9-2.8c-1.2,0.5-3.1,1.8-4.6,1.6
			c-2.3-0.4-2-2-0.9-3c1.2-1.1,3.5-1.7,5.2-2.2c0.7-0.2,2.1-0.3,2.5-0.9c0.2-0.3-1.2-0.9-1-1.1c0.4-0.2,2.8,1.1,2.7,1.5
			c-0.1,0.3-2.9,0.7-3.4,0.8c-1.6,0.4-7.3,1.4-6.6,3.3c0.5,1.5,2.7,0.7,3.8,0.3c0.5-0.2,2.4-0.7,2.5-1.1c0.2-0.5-0.9-1.5-1-1.4
			c0.7-0.7,2.1,0.6,1.9,1.2c2.9-1,4.2-0.3,3.3-2.8c-0.1-0.3-2.3-4-2.3-4c1.5-0.4,3,4.1,3.3,4.4c0.2,0.3,0,1.1,0.4,1.3
			c-0.4-0.3,2.7,0.1,2.1,0.4c-0.5,0.2-1.3,0.1-1.9,0.2c0.4,1.2,0.8,2.4,1.4,3.5c0.5-0.3,0.7-2,0.5-1.9c1.8-0.6,0.8,1.8,0.8,1.8
			c0,0.3-0.9,0.4-1,0.7c-0.2,0.8,2.7,4.5,3.8,4.6c0.1,0-0.1-3.2,0.3-3.1C165.3,31.8,165.4,34.9,165.5,35.1
			C165.6,35.4,165.4,34.9,165.5,35.1z M152.9,32c0-0.4,0-0.8,0-1.3c-0.8,0.3-1.7,0.7-2.6,1C151.4,32,153,33.6,152.9,32
			C152.9,31.8,152.9,32.2,152.9,32z M160.8,23.4c-1.1-0.3,4.4-0.1,3.5,1.1C164.2,24.6,161.1,23.5,160.8,23.4
			C160.6,23.4,161.3,23.6,160.8,23.4z"/>
		<path class="st3" d="M176.8,24.9c-1.9,0.9-3.3,2.2-5,3.3c0.4,0.1,1.9,1.1,1.8,1.2c0.3-0.1,0.5-0.8,0.9-0.8c-1-0.1-1.5,5.8-1.8,5.7
			c-1.5-0.4,0.6-4.8-1-6c-0.1,0.1-1.6,1.2-2,1c-0.9-0.5,3.6-2.9,4.2-3.4c0.6-0.4,1.6-0.9,1.9-1.5c0.2-0.3-0.8-1.1-0.5-1.2
			C175.4,23.1,177.6,24.5,176.8,24.9C176.6,25,176.9,24.8,176.8,24.9z M177.4,28.2c0.1-0.6-0.5,5.6-0.9,5.4
			c-1.1-0.3-0.2-2.2-0.2-2.6c0-0.2-0.6-2.7-0.9-2.5c0.4-0.3,1.5,1,1.6,1C177,29.6,177.3,28.3,177.4,28.2
			C177.4,28.1,177.3,28.6,177.4,28.2z M187,31.7c0.1,1,0.6,3.6-1.5,3.4c-0.6,0-5.2-3-4.7-3.2c0.4-0.2,3.7,2.9,5.1,2.2
			c1.1-0.5,0.3-4.5,0.3-5.2c0-0.5,0.3-1.5-0.2-2c-0.8-0.8-1.1-0.4-2.4-0.5c-0.5,0-2.9-0.4-3.2-0.3c-1.5,0.4,0,1.4-0.9,2
			c-0.4,0.2-2.3-2-2.3-2c0.3-0.3,1.7,0.8,1.7,0.8c1.3-0.9,1.1-0.9,3.4-0.9c0.9,0,2.3-0.3,3.2,0C188.2,26.8,186.9,30.3,187,31.7
			C187,32,186.9,31.4,187,31.7z"/>
	</g>
</g>
<g>
</g>
</svg>
